<svg
  width="1400"
  height="960"
  viewBox="0 0 1400 960"
  fill="none"
  xmlns="http://www.w3.org/2000/svg"
  role="img"
  aria-labelledby="heroTitle heroDesc"
>
  <title id="heroTitle">Tachiyomi Back hosted OCR and translation illustration</title>
  <desc id="heroDesc">
    Stylized Tachiyomi Back scene showing manga panels, OCR blocks,
    translated text bubbles, device activation, tokens, and backend routing.
  </desc>
  <defs>
    <linearGradient id="bgGradient" x1="182" y1="68" x2="1201" y2="886" gradientUnits="userSpaceOnUse">
      <stop stop-color="#FFF5D6" />
      <stop offset="0.5" stop-color="#FFFDF5" />
      <stop offset="1" stop-color="#E8FFF3" />
    </linearGradient>
    <linearGradient id="cardGradient" x1="332" y1="178" x2="1010" y2="784" gradientUnits="userSpaceOnUse">
      <stop stop-color="#111827" />
      <stop offset="1" stop-color="#273449" />
    </linearGradient>
    <linearGradient id="accentGradient" x1="444" y1="205" x2="970" y2="758" gradientUnits="userSpaceOnUse">
      <stop stop-color="#FFD563" />
      <stop offset="1" stop-color="#7EE2A8" />
    </linearGradient>
    <filter id="softShadow" x="196" y="110" width="1008" height="780" filterUnits="userSpaceOnUse" color-interpolation-filters="sRGB">
      <feFlood flood-opacity="0" result="BackgroundImageFix" />
      <feColorMatrix
        in="SourceAlpha"
        type="matrix"
        values="0 0 0 0 0 0 0 0 0 0 0 0 0 0 0 0 0 0 127 0"
        result="hardAlpha"
      />
      <feOffset dy="32" />
      <feGaussianBlur stdDeviation="44" />
      <feComposite in2="hardAlpha" operator="out" />
      <feColorMatrix
        type="matrix"
        values="0 0 0 0 0.0588235 0 0 0 0 0.0901961 0 0 0 0 0.164706 0 0 0 0.18 0"
      />
      <feBlend mode="normal" in2="BackgroundImageFix" result="effect1_dropShadow_1_1" />
      <feBlend mode="normal" in="SourceGraphic" in2="effect1_dropShadow_1_1" result="shape" />
    </filter>
  </defs>

  <rect width="1400" height="960" rx="48" fill="url(#bgGradient)" />
  <circle cx="251" cy="210" r="122" fill="#FFE79D" fill-opacity="0.72" />
  <circle cx="1146" cy="738" r="164" fill="#C9F9DD" fill-opacity="0.7" />
  <circle cx="1158" cy="206" r="84" fill="#FFF7D8" fill-opacity="0.95" />

  <g filter="url(#softShadow)">
    <rect x="284" y="154" width="832" height="692" rx="44" fill="url(#cardGradient)" />
    <rect x="308" y="178" width="784" height="644" rx="34" fill="#0F172A" />
    <path
      d="M308 248C308 229.222 323.222 214 342 214H1058C1076.78 214 1092 229.222 1092 248V346H308V248Z"
      fill="#111C31"
    />
    <circle cx="356" cy="279" r="9" fill="#FFD563" />
    <circle cx="388" cy="279" r="9" fill="#7EE2A8" />
    <circle cx="420" cy="279" r="9" fill="#95B8FF" />

    <rect x="366" y="248" width="176" height="62" rx="20" fill="#13233D" />
    <rect x="392" y="270" width="28" height="28" rx="8" fill="#FFD563" />
    <path d="M402 278H410V282H407V290H403V282H400V278H402Z" fill="#0F172A" />
    <text x="436" y="286" fill="#F8FAFC" font-family="ui-sans-serif, system-ui, sans-serif" font-size="24" font-weight="700">
      Tachiyomi
    </text>
    <text x="436" y="305" fill="#94A3B8" font-family="ui-sans-serif, system-ui, sans-serif" font-size="18" font-weight="600">
      Back
    </text>

    <rect x="382" y="392" width="312" height="338" rx="28" fill="#F8FAFC" />
    <rect x="722" y="392" width="280" height="176" rx="28" fill="#13233D" />
    <rect x="722" y="590" width="280" height="140" rx="28" fill="#13233D" />

    <rect x="414" y="430" width="118" height="118" rx="22" fill="#E2E8F0" />
    <path d="M432 512L462 460L488 500L516 478L544 512" stroke="#64748B" stroke-width="11" stroke-linecap="round" stroke-linejoin="round" />
    <path d="M566 444H648" stroke="#CBD5E1" stroke-width="14" stroke-linecap="round" />
    <path d="M566 478H650" stroke="#CBD5E1" stroke-width="14" stroke-linecap="round" />
    <path d="M566 512H620" stroke="#CBD5E1" stroke-width="14" stroke-linecap="round" />

    <rect x="414" y="582" width="234" height="112" rx="20" fill="#F8FAFC" stroke="#E2E8F0" stroke-width="4" />
    <path d="M438 610H624" stroke="#CBD5E1" stroke-width="14" stroke-linecap="round" />
    <path d="M438 642H598" stroke="#CBD5E1" stroke-width="14" stroke-linecap="round" />
    <path d="M438 674H560" stroke="#CBD5E1" stroke-width="14" stroke-linecap="round" />

    <rect x="448" y="462" width="52" height="20" rx="10" fill="#FFD563" fill-opacity="0.95" />
    <rect x="458" y="490" width="82" height="20" rx="10" fill="#FFD563" fill-opacity="0.9" />
    <rect x="474" y="522" width="62" height="20" rx="10" fill="#FFD563" fill-opacity="0.84" />

    <rect x="752" y="422" width="220" height="40" rx="20" fill="#1E293B" />
    <text x="782" y="447" fill="#FFD563" font-family="ui-sans-serif, system-ui, sans-serif" font-size="18" font-weight="700">
      OCR blocks
    </text>
    <rect x="752" y="484" width="138" height="24" rx="12" fill="#7EE2A8" />
    <rect x="752" y="522" width="182" height="24" rx="12" fill="#95B8FF" />
    <rect x="752" y="560" width="122" height="24" rx="12" fill="#FFD563" />

    <rect x="748" y="614" width="228" height="84" rx="22" fill="#F8FAFC" />
    <path d="M786 648H912" stroke="#0F172A" stroke-width="14" stroke-linecap="round" />
    <path d="M786 678H946" stroke="#0F172A" stroke-width="14" stroke-linecap="round" />
    <text x="788" y="638" fill="#64748B" font-family="ui-sans-serif, system-ui, sans-serif" font-size="16" font-weight="700">
      Translation output
    </text>

    <path d="M620 428C692 396 736 382 812 382" stroke="url(#accentGradient)" stroke-width="10" stroke-linecap="round" />
    <path d="M616 688C684 724 736 734 814 732" stroke="url(#accentGradient)" stroke-width="10" stroke-linecap="round" />
    <circle cx="814" cy="382" r="16" fill="#FFD563" />
    <circle cx="814" cy="732" r="16" fill="#7EE2A8" />

    <rect x="1018" y="244" width="118" height="118" rx="30" fill="#F8FAFC" fill-opacity="0.1" />
    <rect x="1044" y="268" width="66" height="66" rx="18" fill="#FFD563" />
    <path d="M1064 298H1090" stroke="#0F172A" stroke-width="10" stroke-linecap="round" />
    <path d="M1077 285V311" stroke="#0F172A" stroke-width="10" stroke-linecap="round" />

    <rect x="242" y="326" width="168" height="128" rx="28" fill="#F8FAFC" />
    <rect x="268" y="352" width="116" height="76" rx="18" fill="#111827" />
    <rect x="300" y="444" width="52" height="10" rx="5" fill="#CBD5E1" />
    <rect x="400" y="658" width="140" height="108" rx="24" fill="#13233D" />
    <rect x="436" y="680" width="68" height="68" rx="18" fill="#7EE2A8" />
    <path d="M455 717L471 696L487 717L505 690" stroke="#0F172A" stroke-width="8" stroke-linecap="round" stroke-linejoin="round" />

    <g>
      <rect x="1044" y="426" width="180" height="112" rx="26" fill="#F8FAFC" />
      <rect x="1070" y="454" width="128" height="20" rx="10" fill="#111827" />
      <rect x="1070" y="490" width="96" height="16" rx="8" fill="#94A3B8" />
      <text x="1068" y="443" fill="#64748B" font-family="ui-sans-serif, system-ui, sans-serif" font-size="16" font-weight="700">
        Device bind
      </text>
    </g>

    <g>
      <circle cx="242" cy="560" r="68" fill="#F8FAFC" />
      <circle cx="242" cy="560" r="42" fill="#FFD563" />
      <path d="M222 560H262" stroke="#0F172A" stroke-width="10" stroke-linecap="round" />
      <path d="M242 540V580" stroke="#0F172A" stroke-width="10" stroke-linecap="round" />
    </g>

    <g>
      <rect x="1038" y="614" width="212" height="140" rx="28" fill="#F8FAFC" />
      <text x="1066" y="650" fill="#64748B" font-family="ui-sans-serif, system-ui, sans-serif" font-size="16" font-weight="700">
        Hosted pipeline
      </text>
      <path d="M1070 682H1218" stroke="#0F172A" stroke-width="14" stroke-linecap="round" />
      <path d="M1070 714H1184" stroke="#0F172A" stroke-width="14" stroke-linecap="round" />
      <circle cx="1208" cy="682" r="9" fill="#7EE2A8" />
      <circle cx="1178" cy="714" r="9" fill="#FFD563" />
    </g>
  </g>
</svg>
